<?xml version="1.0" encoding="UTF-8" standalone="no"?>
<svg
   viewBox="0 0 2560 1440"
   version="1.1"
   id="svg730"
   sodipodi:docname="jammy-kde.svg"
   xml:space="preserve"
   width="2560"
   height="1440"
   inkscape:version="1.2 (dc2aedaf03, 2022-05-15)"
   xmlns:inkscape="http://www.inkscape.org/namespaces/inkscape"
   xmlns:sodipodi="http://sodipodi.sourceforge.net/DTD/sodipodi-0.dtd"
   xmlns:xlink="http://www.w3.org/1999/xlink"
   xmlns="http://www.w3.org/2000/svg"
   xmlns:svg="http://www.w3.org/2000/svg"><sodipodi:namedview
     id="namedview732"
     pagecolor="#ffffff"
     bordercolor="#000000"
     borderopacity="0.25"
     inkscape:showpageshadow="2"
     inkscape:pageopacity="0.0"
     inkscape:pagecheckerboard="0"
     inkscape:deskcolor="#d1d1d1"
     showgrid="false"
     showguides="true"
     inkscape:zoom="0.25"
     inkscape:cx="646"
     inkscape:cy="574"
     inkscape:window-width="1854"
     inkscape:window-height="1048"
     inkscape:window-x="0"
     inkscape:window-y="0"
     inkscape:window-maximized="1"
     inkscape:current-layer="svg730" /><defs
     id="defs4"><linearGradient
       inkscape:collect="always"
       id="linearGradient10751"><stop
         style="stop-color:#0077c4;stop-opacity:1;"
         offset="0"
         id="stop10747" /><stop
         style="stop-color:#3daee9;stop-opacity:1;"
         offset="1"
         id="stop10749" /></linearGradient><style
       id="style2">.cls-1{isolation:isolate;}.cls-2{fill:#1c6095;}.cls-3{fill:#4c86b3;}.cls-4,.cls-5{fill:#307db7;}.cls-15,.cls-35,.cls-43,.cls-5{mix-blend-mode:multiply;}.cls-6{fill:#849eae;}.cls-7{fill:#7794a6;}.cls-35,.cls-8{fill:#076094;}.cls-9{fill:#092958;}.cls-10{fill:#5999c9;}.cls-11,.cls-15{fill:#86bddf;}.cls-12{fill:#386fab;}.cls-13{fill:#1c4d82;}.cls-14{fill:#5d90b1;}.cls-16{fill:#0975b9;}.cls-17{fill:#268cd5;}.cls-18{fill:#054265;}.cls-19{fill:#097dbe;}.cls-20{fill:#d0dae0;}.cls-21{fill:#afc4cd;}.cls-22{fill:#abbcc8;}.cls-23{fill:#8aa6b5;}.cls-24{fill:#416d98;}.cls-25,.cls-43{fill:#3a7fb3;}.cls-26{fill:#06386f;}.cls-27{fill:#b8c7d1;}.cls-28{fill:#cbd7df;}.cls-29{fill:#dfe6ea;}.cls-30{fill:#a4b9c3;}.cls-31{fill:#88a2b2;}.cls-32{fill:#7f9daf;}.cls-33{fill:#aec0cc;}.cls-34{fill:#cad6dd;}.cls-35{opacity:0.3;}.cls-36{fill:#d0e5f0;}.cls-37{fill:#9cb3bf;}.cls-38{fill:#93aab9;}.cls-39{fill:#7f9aab;}.cls-40{fill:#a4b8c4;}.cls-41{fill:#e4eaee;}.cls-42{fill:#8da5b4;}.cls-43{opacity:0.6;}.cls-44{fill:#88bae7;}.cls-45{fill:#5892d4;}.cls-46{fill:#427ebf;}.cls-47{fill:#428ac7;}.cls-48{fill:#aed3ea;}.cls-49{fill:#d6eef9;}.cls-50{fill:#abd9f2;}.cls-51{fill:#264b73;}.cls-52{fill:#6093cc;}</style><linearGradient
       inkscape:collect="always"
       xlink:href="#linearGradient10751"
       id="linearGradient10753"
       x1="0"
       y1="0"
       x2="2560"
       y2="1440"
       gradientUnits="userSpaceOnUse" /></defs><rect
     style="fill:url(#linearGradient10753);stroke-linecap:round;stroke-linejoin:round;fill-opacity:1"
     id="rect1091"
     width="2560"
     height="1440"
     x="0"
     y="0" /><g
     class="cls-1"
     id="g728"
     transform="matrix(0.99860219,0,0,0.99860219,703.05637,290.37637)"><g
       id="Layer_1"
       data-name="Layer 1"><path
         class="cls-2"
         d="m 910,769.06 c 12,-6.87 24.89,-13.72 37,-21 16.4,9.41 32.28,19.56 47.93,30.16 -28.18,-3.57 -56.64,-6.77 -84.93,-9.16 z"
         id="path6" /><path
         class="cls-3"
         d="m 828.26,785.39 q 22.71,1.08 45.37,2.68 c 24.93,-12.5 49.32,-25.82 73.36,-40 -39.2,13.72 -78.78,26.06 -118.73,37.32 z"
         id="path8" /><path
         class="cls-4"
         d="m 469.49,674.54 c 25.92,20.62 44.93,48.11 73.54,65.24 9.45,-0.53 19,-1.51 28.34,-2.9 q -22.79,-37.65 -44,-76.15 c -9.53,3.34 -60.67,-4.87 -58.49,8.26 z"
         id="path10" /><path
         class="cls-5"
         d="m 507,718.27 c 8.36,5.57 12.54,8.23 20.89,13.33 5.54,0.11 8.3,0.1 13.8,0 11,1 16.44,1.23 27.33,1.41 -4.53,-7.44 -6.8,-11.23 -11.35,-18.93 A 445.31,445.31 0 0 1 507,718.27 Z"
         id="path12" /><path
         class="cls-2"
         d="m 152.51,336.78 q 23.15,54.56 47.12,108.75 c 25.91,18.89 91.83,88.22 119.53,104.34 C 306.71,518.2 255,434.79 242.9,403 q -28.08,-32.19 -56,-64.51 c -11.63,-0.04 -22.81,-0.59 -34.39,-1.71 z"
         id="path14" /><path
         class="cls-6"
         d="m 186.9,338.45 q 20.72,37.8 41.62,75.51 c 29.9,21.73 60.41,42.39 92.21,61.21 C 288.88,428.67 258,381.49 227.67,334 a 387.26,387.26 0 0 1 -40.77,4.45 z"
         id="path16" /><path
         class="cls-7"
         d="m 212.47,357.87 c 25.8,38.13 61.19,67.71 87.85,105.13 8.18,5.06 12.27,7.5 20.41,12.18 C 288.88,428.67 258,381.49 227.67,334 c -6.67,6.88 -7.8,17.68 -15.2,23.87 z"
         id="path18" /><path
         class="cls-8"
         d="m 204.7,440 c 14.63,2.37 29.52,2.24 44.24,0.86 -10.87,-17.24 -22.2,-34.18 -33.12,-51.39 -30.22,-58.67 -32.4,-17.43 -50.81,-20.72 13.34,23.73 26.5,47.52 39.69,71.25 z"
         id="path20" /><path
         class="cls-9"
         d="m 134.54,334.15 c 22.52,36.57 44.73,73.53 65.09,111.38 Q 193,392 186.9,338.45 a 259,259 0 0 1 -52.36,-4.3 z"
         id="path22" /><path
         class="cls-10"
         d="m 199.63,445.53 c 16.39,33.69 72.37,119 89,152.57 12.55,-14.57 21.8,-31.17 30.57,-48.23 -27.74,-16.12 -93.66,-85.45 -119.57,-104.34 z"
         id="path24" /><path
         class="cls-11"
         d="m 319.16,549.87 c 29.35,46.5 57.41,93.21 94.73,133.67 -46.25,-21.31 -87.82,-51 -125.3,-85.44 12.55,-14.57 21.8,-31.17 30.57,-48.23 z"
         id="path26" /><path
         class="cls-12"
         d="m 288.59,598.1 c 60.74,73 138.24,135.94 226,172.48 q -6.57,16.09 -13.45,32 C 417.59,751.32 345.6,677.8 288.59,598.1 Z"
         id="path28" /><path
         class="cls-13"
         d="m 288.59,598.1 c 37.48,34.48 79.05,64.13 125.3,85.44 31.51,31.59 64.7,60.75 100.68,87 C 426.83,734 349.33,671.15 288.59,598.1 Z"
         id="path30" /><path
         class="cls-13"
         d="m 501.12,802.59 q 6.88,-15.95 13.45,-32 a 690.51,690.51 0 0 0 111.49,60.65 C 583.2,826.18 541.85,817.06 501.12,802.59 Z"
         id="path32" /><path
         class="cls-10"
         d="m 566.84,802.34 a 610.1,610.1 0 0 0 59.22,28.89 c 22.52,-5.43 45.53,-11 67.15,-19.54 23.27,-9.16 44.19,-24.23 64.85,-38.24 -31.27,13.33 -60,24 -94,27.45 a 565.07,565.07 0 0 1 -97.22,1.44 z"
         id="path34" /><path
         class="cls-14"
         d="m 702.46,807.68 c 18.7,-11 37.65,-22 55.6,-34.23 q 16.31,5.34 32.58,10.76 c -28.94,8.92 -58.72,16.47 -88.18,23.47 z"
         id="path36" /><path
         class="cls-11"
         d="m 702.46,807.68 c 57,-4.55 114.48,-11.91 171.17,-19.61 -27.07,-2 -54.16,-3.28 -81.28,-4.4 -29.5,9.13 -59.85,16.87 -89.89,24.01 z"
         id="path38" /><path
         class="cls-15"
         d="m 930.41,770.92 8.7,0.86 c 0,-3.85 -7.14,-18 -7.31,-18.45 l -8.13,2.75 c 2.12,3.2 4.63,11.61 6.74,14.84 z"
         id="path40" /><path
         class="cls-8"
         d="m 483.56,701.77 a 907.91,907.91 0 0 0 79.53,64.17 553.18,553.18 0 0 0 65.43,-7.4 617.15,617.15 0 0 1 -88,-22.68 C 521,725.28 504.22,708.28 483.56,701.77 Z"
         id="path42" /><path
         class="cls-4"
         d="m 540.51,735.86 c 9.47,-0.51 19,-1.48 28.41,-2.87 19.58,9.3 39.38,17.78 59.6,25.55 a 617.15,617.15 0 0 1 -88.01,-22.68 z"
         id="path44" /><path
         class="cls-5"
         d="m 468.76,668.73 c 0.28,2.52 0.55,4.9 0.73,5.81 a 488,488 0 0 0 76.89,20 c -7.5,-13 -15.18,-26.06 -21.84,-39.52 -18.42,7.21 -36.16,10.98 -55.78,13.71 z"
         id="path46" /><path
         class="cls-16"
         d="m 563.09,765.94 a 553.18,553.18 0 0 0 65.43,-7.4 q 27.86,12.09 56.3,22.48 c -41.18,-1.26 -81.53,-5.87 -121.73,-15.08 z"
         id="path48" /><path
         class="cls-17"
         d="m 628.52,758.54 q 27.86,12.09 56.3,22.48 c 34.12,-4.6 67.65,-20.68 99.21,-34.1 -25.28,6.06 -50.66,11.63 -76.37,15.53 -26.22,3.98 -53.03,-0.37 -79.14,-3.91 z"
         id="path50" /><path
         class="cls-4"
         d="m 688.09,764.56 c 32.59,-2.31 64.79,-10.14 96.5,-17.81 Q 764.16,735.34 743.9,723.62 c -18.04,14.46 -36.18,28.73 -55.81,40.94 z"
         id="path52" /><path
         class="cls-4"
         d="m 820.87,738.66 q 20.19,3.86 40.29,8 c 15.55,-16 30.65,-32.35 45.48,-49 -30.06,8.75 -60.19,17.07 -90.55,24.7 1.91,6.53 2.91,9.79 4.78,16.3 z"
         id="path54" /><path
         class="cls-5"
         d="m 822.68,738 c 5.7,1.12 17,-5.46 22.76,-4.33 l -8.89,-16.57 c -7.47,1.9 -11.2,2.83 -18.65,4.62 1.93,6.5 2.88,9.75 4.78,16.28 z"
         id="path56" /><path
         class="cls-18"
         d="m 861.16,746.7 c 15.55,-16 30.65,-32.35 45.48,-49 8.59,12.66 16.86,25.52 25,38.49 q -35.23,5.27 -70.48,10.51 z"
         id="path58" /><path
         class="cls-19"
         d="m 914.75,709.81 q 8.65,13 16.89,26.35 53,-23.16 104.27,-50 c -40.3,8.39 -80.7,16.17 -121.16,23.65 z"
         id="path60" /><path
         class="cls-20"
         d="m 723.15,748.56 c -21.16,-9.06 -40.7,-18.9 -60.08,-31.47 26.63,-3.48 51.16,-13.08 76,-23.06 -5.07,18.25 -10.29,36.45 -15.92,54.53 z"
         id="path62" /><path
         class="cls-21"
         d="m 731.29,721.74 q -20.65,-4 -40.91,-9.8 C 706.83,706.48 723,700.5 739.09,694 q -3.73,13.94 -7.8,27.74 z"
         id="path64" /><path
         class="cls-22"
         d="m 723.15,748.56 c 5.63,-18.08 10.87,-36.28 15.94,-54.53 13.75,-8.17 19.6,-1 33,-9.71 3.42,3.78 55.82,28.4 55.82,28.4 a 1075.66,1075.66 0 0 1 -104.76,35.84 z"
         id="path66" /><path
         class="cls-23"
         d="m 731.29,721.74 q 4.07,-13.8 7.8,-27.71 c 13.75,-8.17 11.45,-5.8 24.89,-14.48 l 46.26,24.83 C 782,712 760,716.54 731.29,721.74 Z"
         id="path68" /><path
         class="cls-2"
         d="m 227.67,334 c 35.9,56.13 112,163.46 150.21,218 a 274.63,274.63 0 0 0 40.74,-10.87 c -3.54,-21.39 -46.58,-94.44 -50.14,-115.82 -43.21,-38 -83.94,-78.63 -124,-120 -3,11 -4.51,16.39 -7.7,26.79 -3.6,0.8 -5.43,1.18 -9.11,1.9 z"
         id="path70" /><path
         class="cls-12"
         d="m 418.62,541.1 c 31.51,34.84 64.29,68.13 100.39,98.14 -40.42,-51.71 -116,-158.09 -150.53,-214 3.52,21.42 46.6,94.47 50.14,115.86 z"
         id="path72" /><path
         class="cls-13"
         d="m 377.88,552 c 43.85,34.56 89.61,65.63 141.13,87.27 -36.1,-30 -68.88,-63.3 -100.39,-98.14 A 274.63,274.63 0 0 1 377.88,552 Z"
         id="path74" /><path
         class="cls-24"
         d="m 377.88,552 c 26.93,38.08 55,86.94 90.95,117 35.19,0.35 68.34,-4.88 102,-15.28 -17.92,-3.13 -34.67,-8.27 -51.78,-14.47 C 467.49,617.6 421.73,586.53 377.88,552 Z"
         id="path76" /><path
         class="cls-13"
         d="m 468.83,669 c 62.27,21.57 124.86,27.72 190.23,21.11 A 791.21,791.21 0 0 1 570.79,653.72 C 537.17,664.11 504,669.34 468.83,669 Z"
         id="path78" /><path
         class="cls-24"
         d="m 659.06,690.1 c 48.09,3.95 97,-8.31 143.15,-21 -36.7,-4.12 -72.59,-10.39 -107.94,-21.39 a 263.59,263.59 0 0 1 -42.71,6.7 q 3.78,17.86 7.5,35.69 z"
         id="path80" /><path
         class="cls-16"
         d="m 733.08,711.29 c 23.6,-13.18 46.54,-27.27 69.13,-42.15 -46.11,12.65 -95.06,24.91 -143.15,21 24.01,10.26 48.42,16.24 74.02,21.15 z"
         id="path82" /><path
         class="cls-8"
         d="m 733.08,711.29 c 28.59,-4.44 56.72,-10.4 84.82,-17.29 27.6,-17.64 54.5,-36.22 81,-55.53 -32,11.18 -64.07,21.61 -96.67,30.67 -22.61,14.86 -45.55,28.97 -69.15,42.15 z"
         id="path84" /><path
         class="cls-2"
         d="m 817.9,694 c 36.88,-9.51 73.38,-20.32 109.71,-31.79 Q 913.39,650.13 898.88,638.47 C 872.4,657.78 845.5,676.36 817.9,694 Z"
         id="path86" /><path
         class="cls-12"
         d="m 927.61,662.21 c 58.52,-38.85 113.17,-82.06 174.63,-116.1 -70.86,23.8 -135.32,61.43 -203.36,92.36 q 14.54,11.7 28.73,23.74 z"
         id="path88" /><path
         class="cls-25"
         d="m 1021.48,596.78 c 31.37,-3.2 60.41,-0.76 91.74,2.12 q -5.29,-26.45 -11,-52.79 c -28.31,15.71 -54.68,31.31 -80.74,50.67 z"
         id="path90" /><path
         class="cls-24"
         d="m 1113.22,598.9 c 41.74,-15.74 83.49,-31.37 126.06,-44.69 -45.61,-4.14 -91.28,-6.67 -137,-8.1 q 5.65,26.35 10.94,52.79 z"
         id="path92" /><path
         class="cls-13"
         d="m 1164.3,580 c 48.3,-3.23 96.55,-5.63 145,-4.65 q -34.82,-11.15 -70,-21.15 c -25.3,7.93 -50.18,16.65 -75,25.8 z"
         id="path94" /><path
         class="cls-26"
         d="m 1309.25,575.36 c 26.48,-9.92 52.84,-17.51 80.72,-22.12 -35.27,1.06 -69.32,6.59 -103.58,15 9.1,2.76 13.67,4.21 22.86,7.12 z"
         id="path96" /><path
         class="cls-18"
         d="m 1332.06,558.66 c -22.43,0.1 -44.67,1.21 -67,3.11 8.5,2.54 12.77,3.83 21.35,6.47 15.14,-3.67 30.3,-6.86 45.65,-9.58 z"
         id="path98" /><path
         class="cls-13"
         d="m 294.51,371.55 q 4.28,-15.36 8,-30.89 -20.86,-20.94 -41.27,-42.3 16.44,36.64 33.27,73.19 z"
         id="path100" /><path
         class="cls-8"
         d="m 272,427.72 c 6.06,-8.65 11.73,-17.75 16.92,-27 a 272,272 0 0 0 29.2,-12.9 559.74,559.74 0 0 1 -83.45,-18.54 c -1.57,5.57 -2.37,8.3 -4,13.64 q 20.5,22.58 41.33,44.8 z"
         id="path102" /><path
         class="cls-13"
         d="m 234.67,369.33 q 26.82,16.29 54.25,31.44 a 272,272 0 0 0 29.2,-12.9 559.74,559.74 0 0 1 -83.45,-18.54 z"
         id="path104" /><path
         class="cls-2"
         d="m 337.29,409.25 q -9.71,-10.59 -19.17,-21.38 a 272,272 0 0 1 -29.2,12.9 c -5.19,9.2 -10.86,18.3 -16.92,27 a 322.77,322.77 0 0 0 65.29,-18.52 z"
         id="path106" /><path
         class="cls-27"
         d="m 234.64,418.28 c 9.31,12.89 18,26.22 27.39,39 14.26,23.11 68.1,97.82 82.58,120.78 5.62,-17 -28.72,-85.69 -23.88,-102.9 -28,-16.55 -54.93,-34.49 -81.38,-53.44"
         id="path108" /><path
         class="cls-28"
         d="m 320.73,475.17 c -4.84,17.21 29.5,85.93 23.88,102.9 q 16,27.79 32.22,55.44 C 371.24,598 326.21,510.74 320.73,475.17 Z"
         id="path110" /><path
         class="cls-29"
         d="m 364.8,556.35 c 26.6,32.72 53.91,64.74 82.78,95.44 a 358.74,358.74 0 0 1 -70.75,-18.28 q -6.06,-38.57 -12.03,-77.16 z"
         id="path112" /><path
         class="cls-30"
         d="m 376.83,633.51 a 358.74,358.74 0 0 0 70.75,18.28 c 24,28.21 55.87,50.11 86.14,71 a 409.94,409.94 0 0 1 -65.34,-2.4 C 435.4,694.47 402.6,666.94 376.83,633.51 Z"
         id="path114" /><path
         class="cls-31"
         d="m 474.85,679 c 19.81,17.24 38.78,30 58.87,43.85 43.62,4.25 86.21,1.9 129.35,-5.73 C 597.67,716.25 535.3,704.49 474.85,679 Z"
         id="path116" /><path
         class="cls-7"
         d="m 576.15,724.92 a 535.43,535.43 0 0 0 86.92,-7.83 c 19.38,12.57 38.92,22.41 60.08,31.47 -50.26,3.97 -99.15,-8.49 -147,-23.64 z"
         id="path118" /><path
         class="cls-32"
         d="m 723.15,748.56 98.53,4.57 6.32,-40.41 a 1075.66,1075.66 0 0 1 -104.85,35.84 z"
         id="path120" /><polygon
         class="cls-33"
         points="857.26,764.56 821.68,753.13 827.95,712.72 "
         id="polygon122" /><path
         class="cls-34"
         d="M 925,749.33 894.87,756 c 0,0 33.41,18 43.9,29.46 C 938.11,769.76 925,749.33 925,749.33 Z"
         id="path124" /><path
         class="cls-25"
         d="m 651.56,654.45 q 3.78,17.82 7.5,35.65 a 791.21,791.21 0 0 1 -88.27,-36.39 543.06,543.06 0 0 0 80.77,0.74 z"
         id="path126" /><path
         class="cls-26"
         d="m 199.63,445.53 a 224,224 0 0 0 17.75,-23.81 q -0.81,-16.11 -1.56,-32.21 c -25.63,-56.87 -41.64,-14.71 -62,-23.55 15.28,26.52 30.85,52.86 45.81,79.57 z"
         id="path128" /><path
         class="cls-9"
         d="m 234.67,369.33 a 559.74,559.74 0 0 0 83.45,18.54 q -0.75,-48 -2.34,-96.08 c -4.93,1.2 -7.4,1.77 -12.38,2.82 q -3.3,33.09 -7.34,66.08 a 470.23,470.23 0 0 1 -58.5,-1.95 c -1.14,4.26 -1.71,6.41 -2.89,10.59 z"
         id="path130" /><path
         class="cls-35"
         d="m 258.8,370 c 15.67,1.36 31.18,2 46.91,2 -3.86,-4.49 -5.78,-6.75 -9.62,-11.28 -12,0.37 -23.84,0.37 -35.85,0 -0.56,3.69 -0.85,5.55 -1.44,9.28 z"
         id="path132" /><path
         class="cls-2"
         d="m 374.37,191.06 a 990.29,990.29 0 0 0 93.15,48.68 c 7.89,25.65 55.29,103 63.22,128.58 -27,-7.84 -92.72,-68.93 -118.69,-79.79 q -23.66,-30.13 -46.35,-61 4.52,-18.2 8.67,-36.47 z"
         id="path134" /><path
         class="cls-6"
         d="m 365.7,227.54 c 19.56,15.5 39.41,30.52 59.75,45 q 19.46,46.41 39.64,92.48 c -39.36,-28.36 -76,-59.92 -111.33,-93.19 4.24,-14.72 8.15,-29.48 11.94,-44.29 z"
         id="path136" /><path
         class="cls-7"
         d="m 357.2,259.66 c 31.69,30.09 64.37,58.82 99.1,85.3 3.52,8.08 5.28,12.08 8.79,20 -39.36,-28.36 -76,-59.92 -111.33,-93.19 1.39,-4.77 2.08,-7.24 3.44,-12.11 z"
         id="path138" /><path
         class="cls-8"
         d="m 397.06,251 q -5.24,25.2 -11.23,50.21 c -13.88,-12.84 -27.47,-26 -41,-39.21 q 4.73,-23.85 8.76,-47.82 c 14.34,12.41 28.75,24.82 43.47,36.82 z"
         id="path140" /><path
         class="cls-9"
         d="m 370.6,105.76 c 32.37,44.62 64.47,89.43 96.92,134 q -51,-5.12 -101.82,-12.2 c 6.89,-39.95 -1.03,-81.7 4.9,-121.8 z"
         id="path142" /><path
         class="cls-10"
         d="m 467.52,239.74 c 27.05,12.62 93.88,75.25 122.26,84.42 -19.34,15.2 -39,30 -59,44.16 -7.97,-25.63 -55.37,-102.93 -63.26,-128.58 z"
         id="path144" /><path
         class="cls-11"
         d="m 530.74,368.32 c 37.42,21.38 75.17,40.62 118.07,46.81 -21.07,-29.49 -40.66,-59.69 -59,-91 -19.37,15.23 -38.99,29.99 -59.07,44.19 z"
         id="path146" /><path
         class="cls-12"
         d="m 589.78,324.16 a 372.27,372.27 0 0 0 179.52,88.51 q 19.63,-23.44 39.33,-46.84 c -74.82,8.43 -153.71,-1.19 -218.85,-41.67 z"
         id="path148" /><path
         class="cls-13"
         d="m 589.78,324.16 c 18.37,31.28 38,61.48 59,91 40.56,5.24 80.15,4.05 120.49,-2.46 A 372.27,372.27 0 0 1 589.78,324.16 Z"
         id="path150" /><path
         class="cls-13"
         d="m 808.63,365.83 q -19.7,23.39 -39.33,46.84 c 46,-8.87 89.92,-23.61 133.38,-41.13 a 496.7,496.7 0 0 1 -94.05,-5.71 z"
         id="path152" /><path
         class="cls-10"
         d="m 829.57,397.64 c 24.54,-7.92 49.19,-16.42 73.11,-26.1 q 18.63,31.72 35.88,64.19 c -37.13,-9.99 -73.87,-22.22 -108.99,-38.09 z"
         id="path154" /><path
         class="cls-14"
         d="m 923.61,408.15 c 5.08,9.12 9.44,18 14.95,27.58 Q 963.27,419.82 988,404 c -21.4,1.66 -42.93,3.18 -64.39,4.15 z"
         id="path156" /><path
         class="cls-11"
         d="m 923.61,408.15 c 54.65,-15.76 108.33,-34.83 163.37,-49.24 -33.27,13.59 -65.5,29 -97.69,45 -21.84,1.68 -43.79,3.25 -65.68,4.24 z"
         id="path158" /><path
         class="cls-15"
         d="m 1041.23,371.84 c 3.08,-1 4.63,-1.38 7.74,-2.24 -4.62,4.87 -6.4,6.79 -11,11.94 -4.75,1.22 -7.12,1.84 -11.85,3.08 6.25,-5.41 8.88,-7.45 15.11,-12.78 z"
         id="path160" /><path
         class="cls-3"
         d="m 1032.06,383 c 18,-8.71 36.39,-16.56 54.92,-24.13 14.77,3.12 29,6.29 43.31,11.34 -33.06,2.13 -65.64,6.95 -98.23,12.79 z"
         id="path162" /><path
         class="cls-2"
         d="m 1106.87,363.37 c 9.31,2.44 15.16,4 23.42,6.88 a 434.93,434.93 0 0 1 87.9,-41.38 627.75,627.75 0 0 0 -111.32,34.5 z"
         id="path164" /><path
         class="cls-8"
         d="m 675.06,463.62 c 36.15,-2.4 70.85,-9.1 105.64,-19.2 q 12.87,15.75 26,31.28 a 448.14,448.14 0 0 1 -73.09,-7.3 398.53,398.53 0 0 1 -58.55,-4.78 z"
         id="path166" /><path
         class="cls-4"
         d="m 733.59,468.4 c 3.54,7.36 5.3,11 8.78,18.2 a 573.66,573.66 0 0 0 64.31,-10.9 448.14,448.14 0 0 1 -73.09,-7.3 z"
         id="path168" /><path
         class="cls-4"
         d="m 632.33,453.14 a 393.32,393.32 0 0 0 101.26,15.26 c 3.54,7.36 5.3,11 8.78,18.2 C 708,505.48 672.13,524.37 634,533.76 q -0.38,-40.32 -1.67,-80.62 z"
         id="path170" /><path
         class="cls-5"
         d="m 633.07,479.42 c -0.11,-4.47 -0.27,-10.66 -0.27,-10.66 15.13,13.78 37.45,33.94 53.67,46.4 -17.29,7.68 -34.31,14.58 -52.48,19.15 -0.15,-18.16 -0.55,-36.74 -0.92,-54.89 z"
         id="path172" /><path
         class="cls-5"
         d="m 693.43,462 c 7.15,-0.55 21.46,-2.82 21.46,-2.82 1.87,3.81 6.07,14.1 8.07,17.49 5.44,5.44 8.1,8 13.51,13.14 -9.87,5.33 -18.48,10.49 -27.87,14.78 C 704.11,492.3 697.94,474.33 693.43,462 Z"
         id="path174" /><path
         class="cls-16"
         d="m 780.7,444.42 q 12.87,15.75 26,31.28 c 22.68,-7.66 44.91,-16.29 67,-25.63 a 495.12,495.12 0 0 1 -93,-5.65 z"
         id="path176" /><path
         class="cls-17"
         d="m 806.68,475.7 c 22.68,-7.66 44.91,-16.29 67,-25.63 20.91,4 41.89,7.08 63,10 -43.2,8.48 -85.97,15.17 -130,15.63 z"
         id="path178" /><path
         class="cls-4"
         d="m 855.29,472.84 c 27.41,-3.26 54.7,-7.48 81.77,-12.83 -23.62,17.3 -31.14,17.74 -55.14,34.5 z"
         id="path180" /><path
         class="cls-4"
         d="m 969.91,450.86 c 18.77,-11.6 37.51,-23.26 56.39,-34.68 q 1.71,17.44 3.25,34.88 c -27.76,8.32 -55.46,16.84 -83.24,25.1 q 11.79,-12.66 23.6,-25.3 z"
         id="path182" /><path
         class="cls-5"
         d="m 969.91,450.86 19.91,-12.31 q -13.35,16.21 -26.45,32.63 c -6.84,2 -10.26,3 -17.06,5 q 11.79,-12.68 23.6,-25.32 z"
         id="path184" /><path
         class="cls-18"
         d="m 1026.3,416.18 q 1.71,17.44 3.25,34.88 c 22.49,-21 46.31,-40.49 70.09,-60 -24.78,7.5 -49.21,15.69 -73.34,25.12 z"
         id="path186" /><path
         class="cls-19"
         d="m 1052,430.78 q 23.71,-20 47.66,-39.74 a 718.53,718.53 0 0 1 82.33,3.61 c -44.14,9.35 -87.24,21.84 -129.99,36.13 z"
         id="path188" /><path
         class="cls-20"
         d="m 871.65,485.61 c -29.3,17.33 -59,33.63 -89.79,48.14 15.38,6.45 30.89,12.1 46.72,17.34 q 21.67,-32.64 43.07,-65.48 z"
         id="path190" /><path
         class="cls-21"
         d="m 850.2,518.45 c -17,7.85 -34.19,15.45 -51.66,22.28 9.87,3.79 19.94,7.23 30,10.36 q 10.9,-16.27 21.66,-32.64 z"
         id="path192" /><path
         class="cls-22"
         d="m 871.65,485.61 q -21.46,32.79 -43.07,65.48 9.09,8.05 18.15,15.9 c 35.06,-27.4 69.16,-56 103.12,-84.75 -26.06,1.66 -52.09,2.96 -78.2,3.37 z"
         id="path194" /><path
         class="cls-23"
         d="m 850.2,518.45 q -10.76,16.35 -21.62,32.64 9.09,8.05 18.15,15.9 c 26.52,-20.7 52.51,-42 78.31,-63.64 -24.84,5.65 -49.72,10.85 -74.84,15.1 z"
         id="path196" /><path
         class="cls-36"
         d="m 1028.05,589.84 c 26.82,-25.36 56,-46.92 85.49,-69 q -28.9,5.83 -57.69,12.21 c -9.93,18.57 -18.72,37.77 -27.8,56.79 z"
         id="path198" /><path
         class="cls-37"
         d="m 1055.85,533 c 39.9,-36.79 79.67,-73.71 121.12,-108.73 -21.71,31.8 -42.74,64 -63.43,96.52 q -28.9,5.88 -57.69,12.21 z"
         id="path200" /><path
         class="cls-7"
         d="m 1103.93,489 q 25,-15.71 50.3,-30.82 -11.14,16.85 -22.12,33.79 -14.11,-1.65 -28.18,-2.97 z"
         id="path202" /><path
         class="cls-6"
         d="m 1147.05,469 c 32.49,-23.59 65.56,-46 100.39,-66 -23.88,5.95 -47.24,13.12 -70.47,21.24 q -15.17,22.3 -29.92,44.76 z"
         id="path204" /><path
         class="cls-38"
         d="m 1205.89,414.74 c 11,-7.38 22.35,-14.73 33.55,-21.75 3.2,4 4.8,6 8,10.08 -14.21,3.56 -27.72,7.37 -41.55,11.67 z"
         id="path206" /><path
         class="cls-36"
         d="m 1239.44,393 c 3.2,4 4.8,6 8,10.08 29.6,-14.47 59.61,-26.37 91.52,-34.56 -34.3,4.29 -66.96,12.88 -99.52,24.48 z"
         id="path208" /><path
         class="cls-2"
         d="m 353.76,271.79 c 41.47,39 124.14,127.24 171.55,158.68 -2.6,15.23 -44.81,-21.21 -47.66,-6 a 522.35,522.35 0 0 1 -54,0.05 C 389.74,380.62 358,335.21 327.28,289 c 7.45,-9.06 -8.8,-20.79 -0.51,-29.11 9.92,-0.12 17.07,12.11 26.99,11.9 z"
         id="path210" /><path
         class="cls-12"
         d="m 477.65,424.45 c 32,24 104.66,96.74 141.19,112.94 -56.2,-9.54 -146.35,-83.68 -195.16,-112.89 a 522.35,522.35 0 0 0 53.97,-0.05 z"
         id="path212" /><path
         class="cls-13"
         d="m 525.31,430.47 c 28.86,37.79 59.26,74 93.53,106.92 -36.53,-16.2 -109.21,-88.92 -141.19,-112.94 2.85,-15.19 45.06,21.25 47.66,6.02 z"
         id="path214" /><path
         class="cls-24"
         d="m 525.31,430.47 c 34.17,20.19 69.32,36.89 107.22,48.6 q 10.53,43.62 20.67,87.34 c -12.12,-8.86 -23.27,-18.91 -34.36,-29 -34.27,-32.95 -64.67,-69.15 -93.53,-106.94 z"
         id="path216" /><path
         class="cls-13"
         d="m 632.53,479.07 c 35.78,33.35 74.07,61.94 117.11,85 a 416.54,416.54 0 0 1 -96.44,2.32 q -10.12,-43.71 -20.67,-87.32 z"
         id="path218" /><path
         class="cls-24"
         d="m 749.64,564.09 c 41.45,2.37 82.43,-2.05 123.34,-8.52 -44.21,22 -89.11,41.46 -136.59,55 -9.85,-3.49 -19.66,-7.48 -29.14,-11.88 14.45,-11.14 28.52,-22.69 42.39,-34.6 z"
         id="path220" /><path
         class="cls-16"
         d="m 840.71,531.32 q 16.11,12.15 32.27,24.25 c -40.91,6.47 -81.89,10.89 -123.34,8.52 31.27,-8.58 61.3,-19.91 91.07,-32.77 z"
         id="path222" /><path
         class="cls-8"
         d="m 840.71,531.32 c 25.91,-5 51.52,-11 77.08,-17.53 q 21,10.22 42,20.56 c -28.83,7.56 -57.69,14.82 -86.79,21.22 q -16.16,-12.11 -32.29,-24.25 z"
         id="path224" /><path
         class="cls-2"
         d="M 917.79,513.79 C 952,503.68 986,492.84 1020,482.09 q -30.19,26 -60.18,52.26 Q 938.83,524 917.79,513.79 Z"
         id="path226" /><path
         class="cls-12"
         d="m 1020,482.09 c 37.45,7.08 72,20.82 106.84,36 -27.94,-0.43 -57,-2.1 -84.72,1.49 -27.51,3.56 -55,9.89 -82.3,14.73 q 30.01,-26.12 60.18,-52.22 z"
         id="path228" /><path
         class="cls-25"
         d="m 1077.69,498.14 c 37.57,-15.15 75.31,-29.72 113.79,-42.36 -22,20.29 -43.5,41.16 -64.69,62.35 q -24.39,-10.45 -49.1,-19.99 z"
         id="path230" /><path
         class="cls-24"
         d="M 1191.48,455.78 A 880.35,880.35 0 0 1 1293,469.65 c -57.08,10.26 -111.79,28.54 -166.17,48.48 21.17,-21.19 42.61,-42.06 64.65,-62.35 z"
         id="path232" /><path
         class="cls-13"
         d="m 1232.65,460 c 55.13,-10.2 109.59,-13.63 165.12,-4.55 -35.91,-0.26 -70.14,5 -104.81,14.25 -20.02,-4.01 -40.06,-7.22 -60.31,-9.7 z"
         id="path234" /><path
         class="cls-26"
         d="m 1397.77,455.4 q 26.67,18 52.24,37.41 a 578.92,578.92 0 0 0 -87.12,-36.27 c 11.7,-0.83 23.11,-1.2 34.88,-1.14 z"
         id="path236" /><path
         class="cls-18"
         d="m 1401.42,470.32 a 453.11,453.11 0 0 0 -70.52,-9.43 287.21,287.21 0 0 1 32,-4.35 c 13,4.28 25.75,8.84 38.52,13.78 z"
         id="path238" /><path
         class="cls-9"
         d="m 385.83,301.16 c -0.26,10.76 -0.41,16.12 -0.77,26.78 -25,-15.71 -49.72,-31.86 -73.77,-49 9.53,-2.52 6.11,-16.1 15.48,-19.14 1.19,-4 20,9.19 21.18,5.16 12.64,12.04 25.14,24.26 37.88,36.2 z"
         id="path240" /><path
         class="cls-13"
         d="m 385.06,327.94 c -10.13,3.92 -15.25,5.74 -25.6,9 q -16.33,-23.85 -32.18,-48 28.46,20.19 57.78,39 z"
         id="path242" /><path
         class="cls-8"
         d="m 359.46,337 c -8.79,6.52 -17.89,12.78 -27.14,18.61 q -7,16.31 -14.3,32.4 -1.84,-47.79 -4.4,-95.54 c 5.5,-1.31 8.23,-2 13.66,-3.49 q 15.86,24.14 32.18,48.02 z"
         id="path244" /><path
         class="cls-39"
         d="m 335.86,410.82 c 8.57,-24.41 16.35,-49 23.6,-73.85 q 28.59,44.8 58.82,88.45 a 530.87,530.87 0 0 1 -82.42,-14.6 z"
         id="path246" /><path
         class="cls-13"
         d="m 313.62,292.44 q 9.28,31.59 18.7,63.14 -7,16.31 -14.3,32.4 -1.84,-47.79 -4.4,-95.54 z"
         id="path248" /><path
         class="cls-2"
         d="m 335.86,410.82 q -9,-11.34 -17.84,-22.84 7.37,-16.12 14.3,-32.4 c 9.25,-5.83 18.35,-12.09 27.14,-18.61 -7.25,24.84 -15.03,49.44 -23.6,73.85 z"
         id="path250" /><path
         class="cls-27"
         d="m 335.86,410.82 q 18.5,29.6 37.63,58.77 c 39.14,23.29 118.88,94.25 162.72,106.63 -27.85,-31.7 -93.14,-116.62 -117.93,-150.8 a 530.87,530.87 0 0 1 -82.42,-14.6 z"
         id="path252" /><path
         class="cls-6"
         d="m 418.28,425.42 c 24.79,34.18 90.08,119.1 117.93,150.8 28.19,-5.9 81.73,-28.79 81.73,-28.79 0.16,-2.32 -40.63,-13.6 -58.93,-20.36 C 523.8,514.05 449.66,446.27 418.28,425.42 Z"
         id="path254" /><path
         class="cls-28"
         d="m 536.21,576.22 c 44.6,36.56 92.17,65.49 149.29,76.48 a 1169.57,1169.57 0 0 1 -67.56,-105.27 523.68,523.68 0 0 1 -81.73,28.79 z"
         id="path256" /><path
         class="cls-7"
         d="m 617.94,547.43 a 434,434 0 0 0 71.76,51.69 c -10.64,4.82 -21.28,9.37 -32.13,13.69 -13.88,-21.4 -26.98,-43.22 -39.63,-65.38 z"
         id="path258" /><path
         class="cls-40"
         d="m 689.7,599.12 q -1.82,26.82 -4.2,53.58 -14.31,-19.7 -27.93,-39.89 c 10.85,-4.32 21.49,-8.87 32.13,-13.69 z"
         id="path260" /><path
         class="cls-36"
         d="m 685.5,652.7 c 33.1,11 66.6,17.78 101.12,22.35 q -10.85,-28.42 -22,-56.74 A 662.06,662.06 0 0 1 685.5,652.7 Z"
         id="path262" /><path
         class="cls-37"
         d="m 764.67,618.31 q 11.08,28.34 22,56.74 C 833.17,636.33 876.55,594.31 919,551.14 868.94,577 818.19,600.8 764.67,618.31 Z"
         id="path264" /><path
         class="cls-36"
         d="m 786.62,675.05 c 44.7,-23.77 87.39,-50.65 129.26,-79.18 q 1.67,-22.36 3.07,-44.73 c -42.45,43.17 -85.83,85.19 -132.33,123.91 z"
         id="path266" /><path
         class="cls-41"
         d="m 919,551.14 q -1.4,22.36 -3.07,44.73 c 37.39,-2 74.77,-4.28 112.17,-6 C 992.19,575.43 955.71,563 919,551.14 Z"
         id="path268" /><path
         class="cls-37"
         d="m 992.29,576.19 c 21,-14.53 41.68,-30 63.56,-43.15 -9.93,18.58 -18.72,37.78 -27.8,56.8 q -17.82,-7.02 -35.76,-13.65 z"
         id="path270" /><path
         class="cls-23"
         d="m 689.7,599.12 a 447.67,447.67 0 0 0 75,19.19 662.06,662.06 0 0 1 -79.2,34.39 q 2.37,-26.78 4.2,-53.58 z"
         id="path272" /><path
         class="cls-27"
         d="m 425.45,272.5 c 10.55,10.79 21.17,21.5 32,32 17.78,11.72 75.31,74.39 94,84.55 -15.4,9.67 -70.47,-32.81 -86.4,-24.06 q -19.17,-43.65 -37.61,-87.62"
         id="path274" /><path
         class="cls-28"
         d="m 465.09,365 c 15.93,-8.75 71,33.73 86.4,24.06 14.93,6.28 30,11.9 45.32,17 C 566.16,412 496.28,363.88 465.09,365 Z"
         id="path276" /><path
         class="cls-29"
         d="m 529.35,415.23 c 26.49,19.88 54.23,38.2 83.52,53.6 q -7.95,-31.4 -16.06,-62.74 c -22.25,4.27 -44.89,7.1 -67.46,9.14 z"
         id="path278" /><path
         class="cls-30"
         d="m 596.81,406.09 q 8.13,31.34 16.06,62.74 c 33.18,11 67.55,11.66 102.18,9.75 q -9.62,-22.71 -19.16,-45.45 c -35.07,-3.84 -67.43,-11.04 -99.08,-27.04 z"
         id="path280" /><path
         class="cls-31"
         d="m 645.58,476.56 c 23.2,2.3 46.18,3.35 69.47,2 a 762.24,762.24 0 0 0 66.81,55.17 C 732.75,523.17 688.08,503.49 645.58,476.56 Z"
         id="path282" /><path
         class="cls-7"
         d="m 737.17,498.66 c 14.51,12.2 29.28,24.06 44.69,35.09 30.78,-14.51 60.49,-30.81 89.79,-48.14 -44.57,10.08 -88.77,15.54 -134.48,13.05 z"
         id="path284" /><path
         class="cls-32"
         d="m 871.65,485.61 c 35.76,-22 70.83,-45.11 106,-68 -9.55,21.44 -18.72,43 -27.82,64.67 -26.04,1.62 -52.07,2.92 -78.18,3.33 z"
         id="path286" /><path
         class="cls-33"
         d="m 949.85,482.24 c 32.92,-41.33 65.9,-82.91 102.29,-121.23 -25.58,17.79 -50,37.23 -74.47,56.56 -9.55,21.43 -18.67,43.04 -27.82,64.67 z"
         id="path288" /><path
         class="cls-42"
         d="m 977.67,417.57 c 24.44,-19.33 48.89,-38.77 74.47,-56.56 a 804,804 0 0 1 59.21,-74.89 c -50.53,38.4 -92.35,83.39 -133.68,131.45 z"
         id="path290" /><path
         class="cls-34"
         d="m 1111.35,286.12 c -8.8,9.89 -17.35,19.88 -25.78,30.1 a 806.54,806.54 0 0 1 80.77,-42.32 q -27.66,5.44 -54.99,12.22 z"
         id="path292" /><path
         class="cls-25"
         d="M 707.25,598.74 C 721.7,587.55 735.77,576 749.64,564.09 a 416.54,416.54 0 0 1 -96.44,2.32 590.74,590.74 0 0 0 54.05,32.33 z"
         id="path294" /><path
         class="cls-26"
         d="m 394.23,249.74 -23.8,37.81 c 0,0 -18.2,-15.17 -24.25,-16.86 4.24,-14.69 15.73,-28.34 19.52,-43.15 11.3,9.19 16.86,13.55 28.53,22.2 z"
         id="path296" /><path
         class="cls-9"
         d="m 313.62,292.44 c 1.49,27.29 2.85,54.58 3.87,81.89 -27.95,1.11 -55.65,-1.62 -83.56,-2.84 1.42,-5 4.35,-18.42 5.71,-23.56 1.62,-4.16 20.18,-23.2 20.18,-23.2 l 43.45,-30 c 4.16,-0.84 6.23,-1.31 10.35,-2.29 z"
         id="path298" /><path
         class="cls-35"
         d="M 370.43,287.55 397.06,251 467.52,239.79 393.37,137.11 c -7,-9.66 -22.42,77 -22.42,77 l -30,51.5 z"
         id="path300" /><path
         class="cls-35"
         d="m 370.43,287.55 c -2.78,10.66 -4.21,15.94 -7.16,26.4 -9.33,-2.14 -14,-3.32 -23.37,-5.87 -7,5.53 -10.56,8.2 -17.76,13.3 -2.84,-0.93 -7.09,-2.37 -7.09,-2.37 l -31.69,22.43 8.43,-27.44 c 0,0 19.33,-48 35,-54.18 9.92,-0.07 17.07,12.12 27,12 6.61,6.37 9.95,9.52 16.64,15.73 z"
         id="path302" /><path
         class="cls-5"
         d="m 847.9,738.11 c 5.71,1.12 30.33,4 36.05,5.14 L 903.42,740.4 841,725.29 Z"
         id="path304" /><path
         class="cls-42"
         d="m 836.92,728.58 c 7.61,13.19 20.34,36 20.34,36 L 925,749.33 Z"
         id="path306" /><path
         class="cls-43"
         d="m 995.72,591.46 32.33,-1.62 c 0,0 10.91,-10 18.15,-16.34 8,-7 13.58,-11.35 13.58,-11.35 l 7.57,-3.11 -38.35,34.48 -41.19,1.8 z"
         id="path308" /><path
         class="cls-35"
         d="m 270.53,382.76 -54.71,6.75 -26.73,37.42 c -3.75,-6.37 -29.84,-51.77 -33.6,-58.06 0,0 101.12,-59 136.3,-54.85 z"
         id="path310" /><path
         class="cls-2"
         d="m 910,769.06 c 12,-6.87 24.89,-13.72 37,-21 16.4,9.41 32.28,19.56 47.93,30.16 -28.18,-3.57 -56.64,-6.77 -84.93,-9.16 z"
         id="path312" /><path
         class="cls-3"
         d="m 828.26,785.39 q 22.71,1.08 45.37,2.68 c 24.93,-12.5 49.32,-25.82 73.36,-40 -39.2,13.72 -78.78,26.06 -118.73,37.32 z"
         id="path314" /><path
         class="cls-4"
         d="m 469.49,674.54 c 25.92,20.62 44.93,48.11 73.54,65.24 9.45,-0.53 19,-1.51 28.34,-2.9 q -22.79,-37.65 -44,-76.15 c -9.53,3.34 -60.67,-4.87 -58.49,8.26 z"
         id="path316" /><path
         class="cls-5"
         d="m 507,718.27 c 8.36,5.57 12.54,8.23 20.89,13.33 5.54,0.11 8.3,0.1 13.8,0 11,1 16.44,1.23 27.33,1.41 -4.53,-7.44 -6.8,-11.23 -11.35,-18.93 A 445.31,445.31 0 0 1 507,718.27 Z"
         id="path318" /><path
         class="cls-2"
         d="m 152.51,336.78 q 23.15,54.56 47.12,108.75 c 25.91,18.89 91.83,88.22 119.53,104.34 C 306.71,518.2 255,434.79 242.9,403 q -28.08,-32.19 -56,-64.51 c -11.63,-0.04 -22.81,-0.59 -34.39,-1.71 z"
         id="path320" /><path
         class="cls-6"
         d="m 186.9,338.45 q 20.72,37.8 41.62,75.51 c 29.9,21.73 60.41,42.39 92.21,61.21 C 288.88,428.67 258,381.49 227.67,334 a 387.26,387.26 0 0 1 -40.77,4.45 z"
         id="path322" /><path
         class="cls-7"
         d="m 212.47,357.87 c 25.8,38.13 61.19,67.71 87.85,105.13 8.18,5.06 12.27,7.5 20.41,12.18 C 288.88,428.67 258,381.49 227.67,334 c -6.67,6.88 -7.8,17.68 -15.2,23.87 z"
         id="path324" /><path
         class="cls-8"
         d="m 204.7,440 c 14.63,2.37 29.52,2.24 44.24,0.86 -10.87,-17.24 -22.2,-34.18 -33.12,-51.39 -30.22,-58.67 -32.4,-17.43 -50.81,-20.72 13.34,23.73 26.5,47.52 39.69,71.25 z"
         id="path326" /><path
         class="cls-9"
         d="m 134.54,334.15 c 22.52,36.57 44.73,73.53 65.09,111.38 Q 193,392 186.9,338.45 a 259,259 0 0 1 -52.36,-4.3 z"
         id="path328" /><path
         class="cls-10"
         d="m 199.63,445.53 c 16.39,33.69 72.37,119 89,152.57 12.55,-14.57 21.8,-31.17 30.57,-48.23 -27.74,-16.12 -93.66,-85.45 -119.57,-104.34 z"
         id="path330" /><path
         class="cls-11"
         d="m 319.16,549.87 c 29.35,46.5 57.41,93.21 94.73,133.67 -46.25,-21.31 -87.82,-51 -125.3,-85.44 12.55,-14.57 21.8,-31.17 30.57,-48.23 z"
         id="path332" /><path
         class="cls-12"
         d="m 288.59,598.1 c 60.74,73 138.24,135.94 226,172.48 q -6.57,16.09 -13.45,32 C 417.59,751.32 345.6,677.8 288.59,598.1 Z"
         id="path334" /><path
         class="cls-13"
         d="m 288.59,598.1 c 37.48,34.48 79.05,64.13 125.3,85.44 31.51,31.59 64.7,60.75 100.68,87 C 426.83,734 349.33,671.15 288.59,598.1 Z"
         id="path336" /><path
         class="cls-13"
         d="m 501.12,802.59 q 6.88,-15.95 13.45,-32 a 690.51,690.51 0 0 0 111.49,60.65 C 583.2,826.18 541.85,817.06 501.12,802.59 Z"
         id="path338" /><path
         class="cls-10"
         d="m 566.84,802.34 a 610.1,610.1 0 0 0 59.22,28.89 c 22.52,-5.43 45.53,-11 67.15,-19.54 23.27,-9.16 44.19,-24.23 64.85,-38.24 -31.27,13.33 -60,24 -94,27.45 a 565.07,565.07 0 0 1 -97.22,1.44 z"
         id="path340" /><path
         class="cls-14"
         d="m 702.46,807.68 c 18.7,-11 37.65,-22 55.6,-34.23 q 16.31,5.34 32.58,10.76 c -28.94,8.92 -58.72,16.47 -88.18,23.47 z"
         id="path342" /><path
         class="cls-11"
         d="m 702.46,807.68 c 57,-4.55 114.48,-11.91 171.17,-19.61 -27.07,-2 -54.16,-3.28 -81.28,-4.4 -29.5,9.13 -59.85,16.87 -89.89,24.01 z"
         id="path344" /><path
         class="cls-15"
         d="m 930.41,770.92 8.7,0.86 c 0,-3.85 -7.14,-18 -7.31,-18.45 l -8.13,2.75 c 2.12,3.2 4.63,11.61 6.74,14.84 z"
         id="path346" /><path
         class="cls-8"
         d="m 483.56,701.77 a 907.91,907.91 0 0 0 79.53,64.17 553.18,553.18 0 0 0 65.43,-7.4 617.15,617.15 0 0 1 -88,-22.68 C 521,725.28 504.22,708.28 483.56,701.77 Z"
         id="path348" /><path
         class="cls-4"
         d="m 540.51,735.86 c 9.47,-0.51 19,-1.48 28.41,-2.87 19.58,9.3 39.38,17.78 59.6,25.55 a 617.15,617.15 0 0 1 -88.01,-22.68 z"
         id="path350" /><path
         class="cls-5"
         d="m 468.76,668.73 c 0.28,2.52 0.55,4.9 0.73,5.81 a 488,488 0 0 0 76.89,20 c -7.5,-13 -15.18,-26.06 -21.84,-39.52 -18.42,7.21 -36.16,10.98 -55.78,13.71 z"
         id="path352" /><path
         class="cls-16"
         d="m 563.09,765.94 a 553.18,553.18 0 0 0 65.43,-7.4 q 27.86,12.09 56.3,22.48 c -41.18,-1.26 -81.53,-5.87 -121.73,-15.08 z"
         id="path354" /><path
         class="cls-17"
         d="m 628.52,758.54 q 27.86,12.09 56.3,22.48 c 34.12,-4.6 67.65,-20.68 99.21,-34.1 -25.28,6.06 -50.66,11.63 -76.37,15.53 -26.22,3.98 -53.03,-0.37 -79.14,-3.91 z"
         id="path356" /><path
         class="cls-4"
         d="m 688.09,764.56 c 32.59,-2.31 64.79,-10.14 96.5,-17.81 Q 764.16,735.34 743.9,723.62 c -18.04,14.46 -36.18,28.73 -55.81,40.94 z"
         id="path358" /><path
         class="cls-4"
         d="m 820.87,738.66 q 20.19,3.86 40.29,8 c 15.55,-16 30.65,-32.35 45.48,-49 -30.06,8.75 -60.19,17.07 -90.55,24.7 1.91,6.53 2.91,9.79 4.78,16.3 z"
         id="path360" /><path
         class="cls-5"
         d="m 822.68,738 c 5.7,1.12 17,-5.46 22.76,-4.33 l -8.89,-16.57 c -7.47,1.9 -11.2,2.83 -18.65,4.62 1.93,6.5 2.88,9.75 4.78,16.28 z"
         id="path362" /><path
         class="cls-18"
         d="m 861.16,746.7 c 15.55,-16 30.65,-32.35 45.48,-49 8.59,12.66 16.86,25.52 25,38.49 q -35.23,5.27 -70.48,10.51 z"
         id="path364" /><path
         class="cls-19"
         d="m 914.75,709.81 q 8.65,13 16.89,26.35 53,-23.16 104.27,-50 c -40.3,8.39 -80.7,16.17 -121.16,23.65 z"
         id="path366" /><path
         class="cls-20"
         d="m 723.15,748.56 c -21.16,-9.06 -40.7,-18.9 -60.08,-31.47 26.63,-3.48 51.16,-13.08 76,-23.06 -5.07,18.25 -10.29,36.45 -15.92,54.53 z"
         id="path368" /><path
         class="cls-21"
         d="m 731.29,721.74 q -20.65,-4 -40.91,-9.8 C 706.83,706.48 723,700.5 739.09,694 q -3.73,13.94 -7.8,27.74 z"
         id="path370" /><path
         class="cls-22"
         d="m 723.15,748.56 c 5.63,-18.08 10.87,-36.28 15.94,-54.53 13.75,-8.17 19.6,-1 33,-9.71 3.42,3.78 55.82,28.4 55.82,28.4 a 1075.66,1075.66 0 0 1 -104.76,35.84 z"
         id="path372" /><path
         class="cls-23"
         d="m 731.29,721.74 q 4.07,-13.8 7.8,-27.71 c 13.75,-8.17 11.45,-5.8 24.89,-14.48 l 46.26,24.83 C 782,712 760,716.54 731.29,721.74 Z"
         id="path374" /><path
         class="cls-2"
         d="m 227.67,334 c 35.9,56.13 112,163.46 150.21,218 a 274.63,274.63 0 0 0 40.74,-10.87 c -3.54,-21.39 -46.58,-94.44 -50.14,-115.82 -43.21,-38 -83.94,-78.63 -124,-120 -3,11 -4.51,16.39 -7.7,26.79 -3.6,0.8 -5.43,1.18 -9.11,1.9 z"
         id="path376" /><path
         class="cls-12"
         d="m 418.62,541.1 c 31.51,34.84 64.29,68.13 100.39,98.14 -40.42,-51.71 -116,-158.09 -150.53,-214 3.52,21.42 46.6,94.47 50.14,115.86 z"
         id="path378" /><path
         class="cls-13"
         d="m 377.88,552 c 43.85,34.56 89.61,65.63 141.13,87.27 -36.1,-30 -68.88,-63.3 -100.39,-98.14 A 274.63,274.63 0 0 1 377.88,552 Z"
         id="path380" /><path
         class="cls-24"
         d="m 377.88,552 c 26.93,38.08 55,86.94 90.95,117 35.19,0.35 68.34,-4.88 102,-15.28 -17.92,-3.13 -34.67,-8.27 -51.78,-14.47 C 467.49,617.6 421.73,586.53 377.88,552 Z"
         id="path382" /><path
         class="cls-13"
         d="m 468.83,669 c 62.27,21.57 124.86,27.72 190.23,21.11 A 791.21,791.21 0 0 1 570.79,653.72 C 537.17,664.11 504,669.34 468.83,669 Z"
         id="path384" /><path
         class="cls-24"
         d="m 659.06,690.1 c 48.09,3.95 97,-8.31 143.15,-21 -36.7,-4.12 -72.59,-10.39 -107.94,-21.39 a 263.59,263.59 0 0 1 -42.71,6.7 q 3.78,17.86 7.5,35.69 z"
         id="path386" /><path
         class="cls-16"
         d="m 733.08,711.29 c 23.6,-13.18 46.54,-27.27 69.13,-42.15 -46.11,12.65 -95.06,24.91 -143.15,21 24.01,10.26 48.42,16.24 74.02,21.15 z"
         id="path388" /><path
         class="cls-8"
         d="m 733.08,711.29 c 28.59,-4.44 56.72,-10.4 84.82,-17.29 27.6,-17.64 54.5,-36.22 81,-55.53 -32,11.18 -64.07,21.61 -96.67,30.67 -22.61,14.86 -45.55,28.97 -69.15,42.15 z"
         id="path390" /><path
         class="cls-2"
         d="m 817.9,694 c 36.88,-9.51 73.38,-20.32 109.71,-31.79 Q 913.39,650.13 898.88,638.47 C 872.4,657.78 845.5,676.36 817.9,694 Z"
         id="path392" /><path
         class="cls-12"
         d="m 927.61,662.21 c 58.52,-38.85 113.17,-82.06 174.63,-116.1 -70.86,23.8 -135.32,61.43 -203.36,92.36 q 14.54,11.7 28.73,23.74 z"
         id="path394" /><path
         class="cls-25"
         d="m 1021.48,596.78 c 31.37,-3.2 60.41,-0.76 91.74,2.12 q -5.29,-26.45 -11,-52.79 c -28.31,15.71 -54.68,31.31 -80.74,50.67 z"
         id="path396" /><path
         class="cls-24"
         d="m 1113.22,598.9 c 41.74,-15.74 83.49,-31.37 126.06,-44.69 -45.61,-4.14 -91.28,-6.67 -137,-8.1 q 5.65,26.35 10.94,52.79 z"
         id="path398" /><path
         class="cls-13"
         d="m 1164.3,580 c 48.3,-3.23 96.55,-5.63 145,-4.65 q -34.82,-11.15 -70,-21.15 c -25.3,7.93 -50.18,16.65 -75,25.8 z"
         id="path400" /><path
         class="cls-26"
         d="m 1309.25,575.36 c 26.48,-9.92 52.84,-17.51 80.72,-22.12 -35.27,1.06 -69.32,6.59 -103.58,15 9.1,2.76 13.67,4.21 22.86,7.12 z"
         id="path402" /><path
         class="cls-18"
         d="m 1332.06,558.66 c -22.43,0.1 -44.67,1.21 -67,3.11 8.5,2.54 12.77,3.83 21.35,6.47 15.14,-3.67 30.3,-6.86 45.65,-9.58 z"
         id="path404" /><path
         class="cls-13"
         d="m 294.51,371.55 q 4.28,-15.36 8,-30.89 -20.86,-20.94 -41.27,-42.3 16.44,36.64 33.27,73.19 z"
         id="path406" /><path
         class="cls-8"
         d="m 272,427.72 c 6.06,-8.65 11.73,-17.75 16.92,-27 a 272,272 0 0 0 29.2,-12.9 559.74,559.74 0 0 1 -83.45,-18.54 c -1.57,5.57 -2.37,8.3 -4,13.64 q 20.5,22.58 41.33,44.8 z"
         id="path408" /><path
         class="cls-13"
         d="m 234.67,369.33 q 26.82,16.29 54.25,31.44 a 272,272 0 0 0 29.2,-12.9 559.74,559.74 0 0 1 -83.45,-18.54 z"
         id="path410" /><path
         class="cls-2"
         d="m 337.29,409.25 q -9.71,-10.59 -19.17,-21.38 a 272,272 0 0 1 -29.2,12.9 c -5.19,9.2 -10.86,18.3 -16.92,27 a 322.77,322.77 0 0 0 65.29,-18.52 z"
         id="path412" /><path
         class="cls-27"
         d="m 234.64,418.28 c 9.31,12.89 18,26.22 27.39,39 14.26,23.11 68.1,97.82 82.58,120.78 5.62,-17 -28.72,-85.69 -23.88,-102.9 -28,-16.55 -54.93,-34.49 -81.38,-53.44"
         id="path414" /><path
         class="cls-28"
         d="m 320.73,475.17 c -4.84,17.21 29.5,85.93 23.88,102.9 q 16,27.79 32.22,55.44 C 371.24,598 326.21,510.74 320.73,475.17 Z"
         id="path416" /><path
         class="cls-29"
         d="m 320.73,475.17 c 26.6,32.71 98,145.92 126.85,176.62 A 358.74,358.74 0 0 1 376.83,633.51 C 372.79,607.8 323.15,504.43 320.73,475.17 Z"
         id="path418" /><path
         class="cls-30"
         d="m 376.83,633.51 a 358.74,358.74 0 0 0 70.75,18.28 c 24,28.21 55.87,50.11 86.14,71 a 409.94,409.94 0 0 1 -65.34,-2.4 C 435.4,694.47 402.6,666.94 376.83,633.51 Z"
         id="path420" /><path
         class="cls-31"
         d="m 474.85,679 c 19.81,17.24 38.78,30 58.87,43.85 43.62,4.25 86.21,1.9 129.35,-5.73 C 597.67,716.25 535.3,704.49 474.85,679 Z"
         id="path422" /><path
         class="cls-7"
         d="m 576.15,724.92 a 535.43,535.43 0 0 0 86.92,-7.83 c 19.38,12.57 38.92,22.41 60.08,31.47 -50.26,3.97 -99.15,-8.49 -147,-23.64 z"
         id="path424" /><path
         class="cls-32"
         d="m 723.15,748.56 98.53,4.57 6.32,-40.41 a 1075.66,1075.66 0 0 1 -104.85,35.84 z"
         id="path426" /><polygon
         class="cls-33"
         points="857.26,764.56 821.68,753.13 827.95,712.72 "
         id="polygon428" /><path
         class="cls-34"
         d="M 925,749.33 894.87,756 c 0,0 33.41,18 43.9,29.46 C 938.11,769.76 925,749.33 925,749.33 Z"
         id="path430" /><path
         class="cls-25"
         d="m 651.56,654.45 q 3.78,17.82 7.5,35.65 a 791.21,791.21 0 0 1 -88.27,-36.39 543.06,543.06 0 0 0 80.77,0.74 z"
         id="path432" /><path
         class="cls-26"
         d="m 199.63,445.53 a 224,224 0 0 0 17.75,-23.81 q -0.81,-16.11 -1.56,-32.21 c -25.63,-56.87 -41.64,-14.71 -62,-23.55 15.28,26.52 30.85,52.86 45.81,79.57 z"
         id="path434" /><path
         class="cls-9"
         d="m 234.67,369.33 a 559.74,559.74 0 0 0 83.45,18.54 q -0.75,-48 -2.34,-96.08 c -4.93,1.2 -7.4,1.77 -12.38,2.82 q -3.3,33.09 -7.34,66.08 a 470.23,470.23 0 0 1 -58.5,-1.95 c -1.14,4.26 -1.71,6.41 -2.89,10.59 z"
         id="path436" /><path
         class="cls-35"
         d="m 258.8,370 c 15.67,1.36 31.18,2 46.91,2 -3.86,-4.49 -5.78,-6.75 -9.62,-11.28 -12,0.37 -23.84,0.37 -35.85,0 -0.56,3.69 -0.85,5.55 -1.44,9.28 z"
         id="path438" /><path
         class="cls-2"
         d="m 374.37,191.06 a 990.29,990.29 0 0 0 93.15,48.68 c 7.89,25.65 55.29,103 63.22,128.58 -27,-7.84 -92.72,-68.93 -118.69,-79.79 q -23.66,-30.13 -46.35,-61 4.52,-18.2 8.67,-36.47 z"
         id="path440" /><path
         class="cls-6"
         d="m 365.7,227.54 c 19.56,15.5 39.41,30.52 59.75,45 q 19.46,46.41 39.64,92.48 c -39.36,-28.36 -76,-59.92 -111.33,-93.19 4.24,-14.72 8.15,-29.48 11.94,-44.29 z"
         id="path442" /><path
         class="cls-7"
         d="m 357.2,259.66 c 31.69,30.09 64.37,58.82 99.1,85.3 3.52,8.08 5.28,12.08 8.79,20 -39.36,-28.36 -76,-59.92 -111.33,-93.19 1.39,-4.77 2.08,-7.24 3.44,-12.11 z"
         id="path444" /><path
         class="cls-8"
         d="m 397.06,251 q -5.24,25.2 -11.23,50.21 c -13.88,-12.84 -27.47,-26 -41,-39.21 q 4.73,-23.85 8.76,-47.82 c 14.34,12.41 28.75,24.82 43.47,36.82 z"
         id="path446" /><path
         class="cls-9"
         d="m 370.6,105.76 c 32.37,44.62 64.47,89.43 96.92,134 q -51,-5.12 -101.82,-12.2 c 6.89,-39.95 -1.03,-81.7 4.9,-121.8 z"
         id="path448" /><path
         class="cls-10"
         d="m 467.52,239.74 c 27.05,12.62 93.88,75.25 122.26,84.42 -19.34,15.2 -39,30 -59,44.16 -7.97,-25.63 -55.37,-102.93 -63.26,-128.58 z"
         id="path450" /><path
         class="cls-11"
         d="m 530.74,368.32 c 37.42,21.38 75.17,40.62 118.07,46.81 -21.07,-29.49 -40.66,-59.69 -59,-91 -19.37,15.23 -38.99,29.99 -59.07,44.19 z"
         id="path452" /><path
         class="cls-12"
         d="m 589.78,324.16 a 372.27,372.27 0 0 0 179.52,88.51 q 19.63,-23.44 39.33,-46.84 c -74.82,8.43 -153.71,-1.19 -218.85,-41.67 z"
         id="path454" /><path
         class="cls-13"
         d="m 589.78,324.16 c 18.37,31.28 38,61.48 59,91 40.56,5.24 80.15,4.05 120.49,-2.46 A 372.27,372.27 0 0 1 589.78,324.16 Z"
         id="path456" /><path
         class="cls-13"
         d="m 808.63,365.83 q -19.7,23.39 -39.33,46.84 c 46,-8.87 89.92,-23.61 133.38,-41.13 a 496.7,496.7 0 0 1 -94.05,-5.71 z"
         id="path458" /><path
         class="cls-10"
         d="m 829.57,397.64 c 24.54,-7.92 49.19,-16.42 73.11,-26.1 q 18.63,31.72 35.88,64.19 c -37.13,-9.99 -73.87,-22.22 -108.99,-38.09 z"
         id="path460" /><path
         class="cls-14"
         d="m 923.61,408.15 c 5.08,9.12 9.44,18 14.95,27.58 Q 963.27,419.82 988,404 c -21.4,1.66 -42.93,3.18 -64.39,4.15 z"
         id="path462" /><path
         class="cls-11"
         d="m 923.61,408.15 c 54.65,-15.76 108.33,-34.83 163.37,-49.24 -33.27,13.59 -65.5,29 -97.69,45 -21.84,1.68 -43.79,3.25 -65.68,4.24 z"
         id="path464" /><path
         class="cls-15"
         d="m 1041.23,371.84 c 3.08,-1 4.63,-1.38 7.74,-2.24 -4.62,4.87 -6.4,6.79 -11,11.94 -4.75,1.22 -7.12,1.84 -11.85,3.08 6.25,-5.41 8.88,-7.45 15.11,-12.78 z"
         id="path466" /><path
         class="cls-3"
         d="m 1032.06,383 c 18,-8.71 36.39,-16.56 54.92,-24.13 14.77,3.12 29,6.29 43.31,11.34 -33.06,2.13 -65.64,6.95 -98.23,12.79 z"
         id="path468" /><path
         class="cls-2"
         d="m 1106.87,363.37 c 9.31,2.44 15.16,4 23.42,6.88 a 434.93,434.93 0 0 1 87.9,-41.38 627.75,627.75 0 0 0 -111.32,34.5 z"
         id="path470" /><path
         class="cls-8"
         d="m 675.06,463.62 c 36.15,-2.4 70.85,-9.1 105.64,-19.2 q 12.87,15.75 26,31.28 a 448.14,448.14 0 0 1 -73.09,-7.3 398.53,398.53 0 0 1 -58.55,-4.78 z"
         id="path472" /><path
         class="cls-4"
         d="m 733.59,468.4 c 3.54,7.36 5.3,11 8.78,18.2 a 573.66,573.66 0 0 0 64.31,-10.9 448.14,448.14 0 0 1 -73.09,-7.3 z"
         id="path474" /><path
         class="cls-4"
         d="m 632.33,453.14 a 393.32,393.32 0 0 0 101.26,15.26 c 3.54,7.36 5.3,11 8.78,18.2 C 708,505.48 672.13,524.37 634,533.76 q -0.38,-40.32 -1.67,-80.62 z"
         id="path476" /><path
         class="cls-5"
         d="m 633.07,479.42 c -0.11,-4.47 -0.27,-10.66 -0.27,-10.66 15.13,13.78 37.45,33.94 53.67,46.4 -17.29,7.68 -34.31,14.58 -52.48,19.15 -0.15,-18.16 -0.55,-36.74 -0.92,-54.89 z"
         id="path478" /><path
         class="cls-5"
         d="m 693.43,462 c 7.15,-0.55 21.46,-2.82 21.46,-2.82 1.87,3.81 6.07,14.1 8.07,17.49 5.44,5.44 8.1,8 13.51,13.14 -9.87,5.33 -18.48,10.49 -27.87,14.78 C 704.11,492.3 697.94,474.33 693.43,462 Z"
         id="path480" /><path
         class="cls-16"
         d="m 780.7,444.42 q 12.87,15.75 26,31.28 c 22.68,-7.66 44.91,-16.29 67,-25.63 a 495.12,495.12 0 0 1 -93,-5.65 z"
         id="path482" /><path
         class="cls-17"
         d="m 806.68,475.7 c 22.68,-7.66 44.91,-16.29 67,-25.63 20.91,4 41.89,7.08 63,10 -43.2,8.48 -85.97,15.17 -130,15.63 z"
         id="path484" /><path
         class="cls-4"
         d="m 855.29,472.84 c 27.41,-3.26 54.7,-7.48 81.77,-12.83 -23.62,17.3 -31.14,17.74 -55.14,34.5 z"
         id="path486" /><path
         class="cls-4"
         d="m 969.91,450.86 c 18.77,-11.6 37.51,-23.26 56.39,-34.68 q 1.71,17.44 3.25,34.88 c -27.76,8.32 -55.46,16.84 -83.24,25.1 q 11.79,-12.66 23.6,-25.3 z"
         id="path488" /><path
         class="cls-5"
         d="m 969.91,450.86 19.91,-12.31 q -13.35,16.21 -26.45,32.63 c -6.84,2 -10.26,3 -17.06,5 q 11.79,-12.68 23.6,-25.32 z"
         id="path490" /><path
         class="cls-18"
         d="m 1026.3,416.18 q 1.71,17.44 3.25,34.88 c 22.49,-21 46.31,-40.49 70.09,-60 -24.78,7.5 -49.21,15.69 -73.34,25.12 z"
         id="path492" /><path
         class="cls-19"
         d="m 1052,430.78 q 23.71,-20 47.66,-39.74 a 718.53,718.53 0 0 1 82.33,3.61 c -44.14,9.35 -87.24,21.84 -129.99,36.13 z"
         id="path494" /><path
         class="cls-20"
         d="m 871.65,485.61 c -29.3,17.33 -59,33.63 -89.79,48.14 15.38,6.45 30.89,12.1 46.72,17.34 q 21.67,-32.64 43.07,-65.48 z"
         id="path496" /><path
         class="cls-21"
         d="m 850.2,518.45 c -17,7.85 -34.19,15.45 -51.66,22.28 9.87,3.79 19.94,7.23 30,10.36 q 10.9,-16.27 21.66,-32.64 z"
         id="path498" /><path
         class="cls-22"
         d="m 871.65,485.61 q -21.46,32.79 -43.07,65.48 9.09,8.05 18.15,15.9 c 35.06,-27.4 69.16,-56 103.12,-84.75 -26.06,1.66 -52.09,2.96 -78.2,3.37 z"
         id="path500" /><path
         class="cls-23"
         d="m 850.2,518.45 q -10.76,16.35 -21.62,32.64 9.09,8.05 18.15,15.9 c 26.52,-20.7 52.51,-42 78.31,-63.64 -24.84,5.65 -49.72,10.85 -74.84,15.1 z"
         id="path502" /><path
         class="cls-36"
         d="m 1028.05,589.84 c 26.82,-25.36 56,-46.92 85.49,-69 q -28.9,5.83 -57.69,12.21 c -9.93,18.57 -18.72,37.77 -27.8,56.79 z"
         id="path504" /><path
         class="cls-37"
         d="m 1055.85,533 c 39.9,-36.79 79.67,-73.71 121.12,-108.73 -21.71,31.8 -42.74,64 -63.43,96.52 q -28.9,5.88 -57.69,12.21 z"
         id="path506" /><path
         class="cls-7"
         d="m 1103.93,489 q 25,-15.71 50.3,-30.82 -11.14,16.85 -22.12,33.79 -14.11,-1.65 -28.18,-2.97 z"
         id="path508" /><path
         class="cls-6"
         d="m 1147.05,469 c 32.49,-23.59 65.56,-46 100.39,-66 -23.88,5.95 -47.24,13.12 -70.47,21.24 q -15.17,22.3 -29.92,44.76 z"
         id="path510" /><path
         class="cls-38"
         d="m 1205.89,414.74 c 11,-7.38 22.35,-14.73 33.55,-21.75 3.2,4 4.8,6 8,10.08 -14.21,3.56 -27.72,7.37 -41.55,11.67 z"
         id="path512" /><path
         class="cls-36"
         d="m 1239.44,393 c 3.2,4 4.8,6 8,10.08 29.6,-14.47 59.61,-26.37 91.52,-34.56 -34.3,4.29 -66.96,12.88 -99.52,24.48 z"
         id="path514" /><path
         class="cls-2"
         d="m 353.76,271.79 c 41.47,39 124.14,127.24 171.55,158.68 -2.6,15.23 -44.81,-21.21 -47.66,-6 a 522.35,522.35 0 0 1 -54,0.05 C 389.74,380.62 358,335.21 327.28,289 c 7.45,-9.06 -8.8,-20.79 -0.51,-29.11 9.92,-0.12 17.07,12.11 26.99,11.9 z"
         id="path516" /><path
         class="cls-12"
         d="m 477.65,424.45 c 32,24 104.66,96.74 141.19,112.94 -56.2,-9.54 -146.35,-83.68 -195.16,-112.89 a 522.35,522.35 0 0 0 53.97,-0.05 z"
         id="path518" /><path
         class="cls-13"
         d="m 525.31,430.47 c 28.86,37.79 59.26,74 93.53,106.92 -36.53,-16.2 -109.21,-88.92 -141.19,-112.94 2.85,-15.19 45.06,21.25 47.66,6.02 z"
         id="path520" /><path
         class="cls-24"
         d="m 525.31,430.47 c 34.17,20.19 69.32,36.89 107.22,48.6 q 10.53,43.62 20.67,87.34 c -12.12,-8.86 -23.27,-18.91 -34.36,-29 -34.27,-32.95 -64.67,-69.15 -93.53,-106.94 z"
         id="path522" /><path
         class="cls-13"
         d="m 632.53,479.07 c 35.78,33.35 74.07,61.94 117.11,85 a 416.54,416.54 0 0 1 -96.44,2.32 q -10.12,-43.71 -20.67,-87.32 z"
         id="path524" /><path
         class="cls-24"
         d="m 749.64,564.09 c 41.45,2.37 82.43,-2.05 123.34,-8.52 -44.21,22 -89.11,41.46 -136.59,55 -9.85,-3.49 -19.66,-7.48 -29.14,-11.88 14.45,-11.14 28.52,-22.69 42.39,-34.6 z"
         id="path526" /><path
         class="cls-16"
         d="m 840.71,531.32 q 16.11,12.15 32.27,24.25 c -40.91,6.47 -81.89,10.89 -123.34,8.52 31.27,-8.58 61.3,-19.91 91.07,-32.77 z"
         id="path528" /><path
         class="cls-8"
         d="m 840.71,531.32 c 25.91,-5 51.52,-11 77.08,-17.53 q 21,10.22 42,20.56 c -28.83,7.56 -57.69,14.82 -86.79,21.22 q -16.16,-12.11 -32.29,-24.25 z"
         id="path530" /><path
         class="cls-2"
         d="M 917.79,513.79 C 952,503.68 986,492.84 1020,482.09 q -30.19,26 -60.18,52.26 Q 938.83,524 917.79,513.79 Z"
         id="path532" /><path
         class="cls-12"
         d="m 1020,482.09 c 37.45,7.08 72,20.82 106.84,36 -27.94,-0.43 -57,-2.1 -84.72,1.49 -27.51,3.56 -55,9.89 -82.3,14.73 q 30.01,-26.12 60.18,-52.22 z"
         id="path534" /><path
         class="cls-25"
         d="m 1077.69,498.14 c 37.57,-15.15 75.31,-29.72 113.79,-42.36 -22,20.29 -43.5,41.16 -64.69,62.35 q -24.39,-10.45 -49.1,-19.99 z"
         id="path536" /><path
         class="cls-24"
         d="M 1191.48,455.78 A 880.35,880.35 0 0 1 1293,469.65 c -57.08,10.26 -111.79,28.54 -166.17,48.48 21.17,-21.19 42.61,-42.06 64.65,-62.35 z"
         id="path538" /><path
         class="cls-13"
         d="m 1232.65,460 c 55.13,-10.2 109.59,-13.63 165.12,-4.55 -35.91,-0.26 -70.14,5 -104.81,14.25 -20.02,-4.01 -40.06,-7.22 -60.31,-9.7 z"
         id="path540" /><path
         class="cls-26"
         d="m 1397.77,455.4 q 26.67,18 52.24,37.41 a 578.92,578.92 0 0 0 -87.12,-36.27 c 11.7,-0.83 23.11,-1.2 34.88,-1.14 z"
         id="path542" /><path
         class="cls-18"
         d="m 1401.42,470.32 a 453.11,453.11 0 0 0 -70.52,-9.43 287.21,287.21 0 0 1 32,-4.35 c 13,4.28 25.75,8.84 38.52,13.78 z"
         id="path544" /><path
         class="cls-9"
         d="m 385.83,301.16 c -0.26,10.76 -0.41,16.12 -0.77,26.78 -25,-15.71 -49.72,-31.86 -73.77,-49 9.53,-2.52 6.11,-16.1 15.48,-19.14 1.19,-4 20,9.19 21.18,5.16 12.64,12.04 25.14,24.26 37.88,36.2 z"
         id="path546" /><path
         class="cls-13"
         d="m 385.06,327.94 c -10.13,3.92 -15.25,5.74 -25.6,9 q -16.33,-23.85 -32.18,-48 28.46,20.19 57.78,39 z"
         id="path548" /><path
         class="cls-8"
         d="m 359.46,337 c -8.79,6.52 -17.89,12.78 -27.14,18.61 q -7,16.31 -14.3,32.4 -1.84,-47.79 -4.4,-95.54 c 5.5,-1.31 8.23,-2 13.66,-3.49 q 15.86,24.14 32.18,48.02 z"
         id="path550" /><path
         class="cls-39"
         d="m 335.86,410.82 c 8.57,-24.41 16.35,-49 23.6,-73.85 q 28.59,44.8 58.82,88.45 a 530.87,530.87 0 0 1 -82.42,-14.6 z"
         id="path552" /><path
         class="cls-13"
         d="m 313.62,292.44 q 9.28,31.59 18.7,63.14 -7,16.31 -14.3,32.4 -1.84,-47.79 -4.4,-95.54 z"
         id="path554" /><path
         class="cls-2"
         d="m 335.86,410.82 q -9,-11.34 -17.84,-22.84 7.37,-16.12 14.3,-32.4 c 9.25,-5.83 18.35,-12.09 27.14,-18.61 -7.25,24.84 -15.03,49.44 -23.6,73.85 z"
         id="path556" /><path
         class="cls-27"
         d="m 335.86,410.82 q 18.5,29.6 37.63,58.77 c 39.14,23.29 118.88,94.25 162.72,106.63 -27.85,-31.7 -93.14,-116.62 -117.93,-150.8 a 530.87,530.87 0 0 1 -82.42,-14.6 z"
         id="path558" /><path
         class="cls-6"
         d="m 418.28,425.42 c 24.79,34.18 90.08,119.1 117.93,150.8 28.19,-5.9 81.73,-28.79 81.73,-28.79 0.16,-2.32 -40.63,-13.6 -58.93,-20.36 C 523.8,514.05 449.66,446.27 418.28,425.42 Z"
         id="path560" /><path
         class="cls-28"
         d="m 536.21,576.22 c 44.6,36.56 92.17,65.49 149.29,76.48 a 1169.57,1169.57 0 0 1 -67.56,-105.27 523.68,523.68 0 0 1 -81.73,28.79 z"
         id="path562" /><path
         class="cls-7"
         d="m 617.94,547.43 a 434,434 0 0 0 71.76,51.69 c -10.64,4.82 -21.28,9.37 -32.13,13.69 -13.88,-21.4 -26.98,-43.22 -39.63,-65.38 z"
         id="path564" /><path
         class="cls-40"
         d="m 689.7,599.12 q -1.82,26.82 -4.2,53.58 -14.31,-19.7 -27.93,-39.89 c 10.85,-4.32 21.49,-8.87 32.13,-13.69 z"
         id="path566" /><path
         class="cls-36"
         d="m 685.5,652.7 c 33.1,11 66.6,17.78 101.12,22.35 q -10.85,-28.42 -22,-56.74 A 662.06,662.06 0 0 1 685.5,652.7 Z"
         id="path568" /><path
         class="cls-37"
         d="m 764.67,618.31 q 11.08,28.34 22,56.74 C 833.17,636.33 876.55,594.31 919,551.14 868.94,577 818.19,600.8 764.67,618.31 Z"
         id="path570" /><path
         class="cls-36"
         d="m 786.62,675.05 c 44.7,-23.77 87.39,-50.65 129.26,-79.18 q 1.67,-22.36 3.07,-44.73 c -42.45,43.17 -85.83,85.19 -132.33,123.91 z"
         id="path572" /><path
         class="cls-41"
         d="m 919,551.14 q -1.4,22.36 -3.07,44.73 c 37.39,-2 74.77,-4.28 112.17,-6 C 992.19,575.43 955.71,563 919,551.14 Z"
         id="path574" /><path
         class="cls-37"
         d="m 992.29,576.19 c 21,-14.53 41.68,-30 63.56,-43.15 -9.93,18.58 -18.72,37.78 -27.8,56.8 q -17.82,-7.02 -35.76,-13.65 z"
         id="path576" /><path
         class="cls-23"
         d="m 689.7,599.12 a 447.67,447.67 0 0 0 75,19.19 662.06,662.06 0 0 1 -79.2,34.39 q 2.37,-26.78 4.2,-53.58 z"
         id="path578" /><path
         class="cls-27"
         d="m 425.45,272.5 c 10.55,10.79 21.17,21.5 32,32 17.78,11.72 75.31,74.39 94,84.55 -15.4,9.67 -70.47,-32.81 -86.4,-24.06 q -19.17,-43.65 -37.61,-87.62"
         id="path580" /><path
         class="cls-28"
         d="m 465.09,365 c 15.93,-8.75 71,33.73 86.4,24.06 14.93,6.28 30,11.9 45.32,17 C 566.16,412 496.28,363.88 465.09,365 Z"
         id="path582" /><path
         class="cls-29"
         d="m 465.09,365 c 26.49,19.87 78.28,67.52 147.78,103.85 q -7.95,-31.4 -16.06,-62.74 C 574.56,410.36 486.94,361.68 465.09,365 Z"
         id="path584" /><path
         class="cls-30"
         d="m 596.81,406.09 q 8.13,31.34 16.06,62.74 c 33.18,11 67.55,11.66 102.18,9.75 q -9.62,-22.71 -19.16,-45.45 c -35.07,-3.84 -67.43,-11.04 -99.08,-27.04 z"
         id="path586" /><path
         class="cls-31"
         d="m 645.58,476.56 c 23.2,2.3 46.18,3.35 69.47,2 a 762.24,762.24 0 0 0 66.81,55.17 C 732.75,523.17 688.08,503.49 645.58,476.56 Z"
         id="path588" /><path
         class="cls-7"
         d="m 737.17,498.66 c 14.51,12.2 29.28,24.06 44.69,35.09 30.78,-14.51 60.49,-30.81 89.79,-48.14 -44.57,10.08 -88.77,15.54 -134.48,13.05 z"
         id="path590" /><path
         class="cls-32"
         d="m 871.65,485.61 c 35.76,-22 70.83,-45.11 106,-68 -9.55,21.44 -18.72,43 -27.82,64.67 -26.04,1.62 -52.07,2.92 -78.18,3.33 z"
         id="path592" /><path
         class="cls-33"
         d="m 949.85,482.24 c 32.92,-41.33 65.9,-82.91 102.29,-121.23 -25.58,17.79 -50,37.23 -74.47,56.56 -9.55,21.43 -18.67,43.04 -27.82,64.67 z"
         id="path594" /><path
         class="cls-42"
         d="m 977.67,417.57 c 24.44,-19.33 48.89,-38.77 74.47,-56.56 a 804,804 0 0 1 59.21,-74.89 c -50.53,38.4 -92.35,83.39 -133.68,131.45 z"
         id="path596" /><path
         class="cls-34"
         d="m 1111.35,286.12 c -8.8,9.89 -17.35,19.88 -25.78,30.1 a 806.54,806.54 0 0 1 80.77,-42.32 q -27.66,5.44 -54.99,12.22 z"
         id="path598" /><path
         class="cls-25"
         d="M 707.25,598.74 C 721.7,587.55 735.77,576 749.64,564.09 a 416.54,416.54 0 0 1 -96.44,2.32 590.74,590.74 0 0 0 54.05,32.33 z"
         id="path600" /><path
         class="cls-26"
         d="m 394.23,249.74 -23.8,37.81 c 0,0 -18.2,-15.17 -24.25,-16.86 4.24,-14.69 15.73,-28.34 19.52,-43.15 11.3,9.19 16.86,13.55 28.53,22.2 z"
         id="path602" /><path
         class="cls-9"
         d="m 313.62,292.44 c 1.49,27.29 2.85,54.58 3.87,81.89 -27.95,1.11 -55.65,-1.62 -83.56,-2.84 1.42,-5 4.35,-18.42 5.71,-23.56 1.62,-4.16 20.18,-23.2 20.18,-23.2 l 43.45,-30 c 4.16,-0.84 6.23,-1.31 10.35,-2.29 z"
         id="path604" /><path
         class="cls-35"
         d="M 370.43,287.55 397.06,251 467.52,239.79 393.37,137.11 c -7,-9.66 -22.42,77 -22.42,77 l -30,51.5 z"
         id="path606" /><path
         class="cls-35"
         d="m 370.43,287.55 c -2.78,10.66 -4.21,15.94 -7.16,26.4 -9.33,-2.14 -14,-3.32 -23.37,-5.87 -7,5.53 -10.56,8.2 -17.76,13.3 -2.84,-0.93 -7.09,-2.37 -7.09,-2.37 l -31.69,22.43 8.43,-27.44 c 0,0 19.33,-48 35,-54.18 9.92,-0.07 17.07,12.12 27,12 6.61,6.37 9.95,9.52 16.64,15.73 z"
         id="path608" /><path
         class="cls-5"
         d="m 847.9,738.11 c 5.71,1.12 30.33,4 36.05,5.14 L 903.42,740.4 841,725.29 Z"
         id="path610" /><path
         class="cls-42"
         d="m 836.92,728.58 c 7.61,13.19 20.34,36 20.34,36 L 925,749.33 Z"
         id="path612" /><path
         class="cls-43"
         d="m 995.72,591.46 32.33,-1.62 c 0,0 10.91,-10 18.15,-16.34 8,-7 13.58,-11.35 13.58,-11.35 l 7.57,-3.11 -38.35,34.48 -41.19,1.8 z"
         id="path614" /><path
         class="cls-35"
         d="m 270.53,382.76 -54.71,6.75 -26.73,37.42 c -3.75,-6.37 -29.84,-51.77 -33.6,-58.06 0,0 101.12,-59 136.3,-54.85 z"
         id="path616" /></g><g
       id="Layer_2"
       data-name="Layer 2"><polygon
         class="cls-12"
         points="136.09,200.05 224.61,157.54 291.22,253.68 233.21,256.42 "
         id="polygon619" /><polygon
         class="cls-44"
         points="239.22,273.46 233.21,256.42 136.09,200.05 85.66,271.09 "
         id="polygon621" /><polygon
         class="cls-10"
         points="184.31,318.13 251.25,350.95 228.62,301.55 239.22,273.46 85.66,271.09 105.48,318.03 "
         id="polygon623" /><polygon
         class="cls-8"
         points="114.92,461.67 140.45,382.59 105.48,318.03 19.2,329.07 25.5,428.98 60.36,460.5 "
         id="polygon625" /><polygon
         class="cls-18"
         points="60.36,460.5 25.5,428.98 65.69,434.01 114.92,461.67 "
         id="polygon627" /><polygon
         class="cls-11"
         points="139.4,155.36 131.78,130.57 70.55,202.54 136.09,200.05 "
         id="polygon629" /><polygon
         class="cls-10"
         points="139.4,155.36 136.09,200.05 224.61,157.54 203.04,126.41 198.93,108.88 188.9,94.4 131.78,130.57 "
         id="polygon631" /><polygon
         class="cls-16"
         points="19.2,329.07 105.48,318.03 85.66,271.09 136.09,200.05 70.55,202.54 43.89,250.68 "
         id="polygon633" /><polygon
         class="cls-45"
         points="377.12,205.14 372.43,265.79 433.77,222.55 "
         id="polygon635" /><polygon
         class="cls-12"
         points="385.49,69.16 291.38,91.42 224.73,157.46 291.34,253.59 313.47,199.07 "
         id="polygon637" /><polygon
         class="cls-4"
         points="313.47,199.07 377.12,205.14 400.66,98.97 "
         id="polygon639" /><polygon
         class="cls-44"
         points="400.66,98.97 313.47,199.07 385.49,69.16 "
         id="polygon641" /><polygon
         class="cls-46"
         points="377.12,205.14 433.77,222.55 418.95,142.81 "
         id="polygon643" /><polygon
         class="cls-47"
         points="400.66,98.97 377.12,205.14 418.95,142.81 "
         id="polygon645" /><polygon
         class="cls-44"
         points="433.77,222.55 502.3,210.22 508.06,182.31 451.04,96.84 400.66,98.97 418.95,142.81 "
         id="polygon647" /><polygon
         class="cls-11"
         points="502.3,210.22 553.55,186.58 574.8,157.46 579.52,112.97 539.3,65.46 521.83,89.62 508.06,182.31 "
         id="polygon649" /><polygon
         class="cls-48"
         points="387.39,29.21 315.04,35.87 291.38,91.42 385.49,69.16 "
         id="polygon651" /><polygon
         class="cls-11"
         points="233.89,64.05 248.83,79.49 291.38,91.42 315.04,35.87 "
         id="polygon653" /><polygon
         class="cls-49"
         points="477.79,38.93 387.39,29.21 385.49,69.16 400.66,98.97 451.04,96.84 508.06,182.31 521.83,89.62 539.3,65.46 "
         id="polygon655" /><polygon
         class="cls-50"
         points="521.83,89.62 539.3,65.46 477.79,38.93 385.49,69.16 400.66,98.97 451.04,96.84 "
         id="polygon657" /><polygon
         class="cls-48"
         points="199.05,108.8 203.16,126.32 224.73,157.46 291.38,91.42 248.83,79.49 233.89,64.05 189.02,94.31 "
         id="polygon659" /><polygon
         class="cls-24"
         points="313.12,274.91 291.22,253.68 224.61,157.54 233.21,256.42 228.62,301.55 251.25,350.95 295.67,323.19 345.08,292.76 345.1,292.71 313.21,274.96 "
         id="polygon661" /><polygon
         class="cls-44"
         points="313.23,274.82 313.25,274.93 345.15,292.68 345.2,292.68 372.43,265.79 377.12,205.14 313.47,199.07 224.73,157.46 291.34,253.59 "
         id="polygon663" /><polygon
         class="cls-51"
         points="251.25,350.95 313.21,274.96 313.12,274.91 291.22,253.68 224.61,157.54 233.21,256.42 228.62,301.55 "
         id="polygon665" /><polygon
         class="cls-52"
         points="313.23,274.82 313.25,274.93 377.12,205.14 313.47,199.07 224.73,157.46 291.34,253.59 "
         id="polygon667" /><polygon
         class="cls-2"
         points="105.48,318.03 140.45,382.59 186.88,396.42 182.87,337.89 184.31,318.13 "
         id="polygon669" /><polygon
         class="cls-4"
         points="186.88,396.42 251.25,350.95 184.31,318.13 105.48,318.03 140.45,382.59 114.92,461.67 152.3,448.97 "
         id="polygon671" /><polygon
         class="cls-12"
         points="136.09,200.05 224.61,157.54 291.22,253.68 233.21,256.42 "
         id="polygon673" /><polygon
         class="cls-44"
         points="239.22,273.46 233.21,256.42 136.09,200.05 85.66,271.09 "
         id="polygon675" /><polygon
         class="cls-10"
         points="184.31,318.13 251.25,350.95 228.62,301.55 239.22,273.46 85.66,271.09 105.48,318.03 "
         id="polygon677" /><polygon
         class="cls-8"
         points="114.92,461.67 140.45,382.59 105.48,318.03 19.2,329.07 25.5,428.98 60.36,460.5 "
         id="polygon679" /><polygon
         class="cls-18"
         points="60.36,460.5 25.5,428.98 65.69,434.01 114.92,461.67 "
         id="polygon681" /><polygon
         class="cls-11"
         points="139.4,155.36 131.78,130.57 70.55,202.54 136.09,200.05 "
         id="polygon683" /><polygon
         class="cls-10"
         points="139.4,155.36 136.09,200.05 224.61,157.54 203.04,126.41 198.93,108.88 188.9,94.4 131.78,130.57 "
         id="polygon685" /><polygon
         class="cls-16"
         points="105.48,318.03 85.66,271.09 136.09,200.05 70.55,202.54 43.89,250.68 19.2,329.07 "
         id="polygon687"
         transform="translate(288.055,-137.74)" /><polygon
         class="cls-45"
         points="377.12,205.14 372.43,265.79 433.77,222.55 "
         id="polygon689" /><polygon
         class="cls-12"
         points="385.49,69.16 291.38,91.42 224.73,157.46 291.34,253.59 313.47,199.07 "
         id="polygon691" /><polygon
         class="cls-4"
         points="313.47,199.07 377.12,205.14 400.66,98.97 "
         id="polygon693" /><polygon
         class="cls-44"
         points="400.66,98.97 313.47,199.07 385.49,69.16 "
         id="polygon695" /><polygon
         class="cls-46"
         points="377.12,205.14 433.77,222.55 418.95,142.81 "
         id="polygon697" /><polygon
         class="cls-47"
         points="400.66,98.97 377.12,205.14 418.95,142.81 "
         id="polygon699" /><polygon
         class="cls-44"
         points="433.77,222.55 502.3,210.22 508.06,182.31 451.04,96.84 400.66,98.97 418.95,142.81 "
         id="polygon701" /><polygon
         class="cls-11"
         points="502.3,210.22 553.55,186.58 574.8,157.46 579.52,112.97 539.3,65.46 521.83,89.62 508.06,182.31 "
         id="polygon703" /><polygon
         class="cls-48"
         points="387.39,29.21 315.04,35.87 291.38,91.42 385.49,69.16 "
         id="polygon705" /><polygon
         class="cls-11"
         points="233.89,64.05 248.83,79.49 291.38,91.42 315.04,35.87 "
         id="polygon707" /><polygon
         class="cls-49"
         points="477.79,38.93 387.39,29.21 385.49,69.16 400.66,98.97 451.04,96.84 508.06,182.31 521.83,89.62 539.3,65.46 "
         id="polygon709" /><polygon
         class="cls-50"
         points="521.83,89.62 539.3,65.46 477.79,38.93 385.49,69.16 400.66,98.97 451.04,96.84 "
         id="polygon711" /><polygon
         class="cls-48"
         points="199.05,108.8 203.16,126.32 224.73,157.46 291.38,91.42 248.83,79.49 233.89,64.05 189.02,94.31 "
         id="polygon713" /><polygon
         class="cls-24"
         points="313.12,274.91 291.22,253.68 224.61,157.54 233.21,256.42 228.62,301.55 251.25,350.95 295.67,323.19 345.08,292.76 345.1,292.71 313.21,274.96 "
         id="polygon715" /><polygon
         class="cls-44"
         points="313.23,274.82 313.25,274.93 345.15,292.68 345.2,292.68 372.43,265.79 377.12,205.14 313.47,199.07 224.73,157.46 291.34,253.59 "
         id="polygon717" /><polygon
         class="cls-51"
         points="251.25,350.95 313.21,274.96 313.12,274.91 291.22,253.68 224.61,157.54 233.21,256.42 228.62,301.55 "
         id="polygon719" /><polygon
         class="cls-52"
         points="313.23,274.82 313.25,274.93 377.12,205.14 313.47,199.07 224.73,157.46 291.34,253.59 "
         id="polygon721" /><polygon
         class="cls-2"
         points="105.48,318.03 140.45,382.59 186.88,396.42 182.87,337.89 184.31,318.13 "
         id="polygon723" /><polygon
         class="cls-4"
         points="186.88,396.42 251.25,350.95 184.31,318.13 105.48,318.03 140.45,382.59 114.92,461.67 152.3,448.97 "
         id="polygon725" /></g></g><path
     id="rect1700"
     style="fill:#16608a;stroke-width:0.978901;stroke-linecap:round;stroke-linejoin:round;opacity:1;fill-opacity:1"
     d="m 1520,0 h 467 l 364.5,667 z"
     sodipodi:nodetypes="cccc" /><path
     id="rect5496"
     style="stroke-linecap:round;stroke-linejoin:round;opacity:1;fill:#2f82af;fill-opacity:1"
     d="M 2351.5,667 2536,0 h 24 v 1440 h -20 z"
     sodipodi:nodetypes="cccccc" /><path
     id="rect7677"
     style="opacity:1;fill:#6bbce9;stroke-linecap:round;stroke-linejoin:round;fill-opacity:1"
     d="m 1987,0 h 549 l -184.5,667 z"
     sodipodi:nodetypes="cccc" /><path
     id="rect9236"
     style="opacity:1;stroke-linecap:round;stroke-linejoin:round;fill:#075889;fill-opacity:1"
     d="M 0,0 H 28 L 207,771 28,1440 H 0 Z"
     sodipodi:nodetypes="cccccc" /><path
     d="m 207,771 834,669 H 572 Z"
     style="opacity:1;fill:#65b5e3;stroke-linecap:round;stroke-linejoin:round;fill-opacity:1"
     id="path9973"
     sodipodi:nodetypes="cccc" /><path
     id="rect10719"
     style="opacity:1;stroke-linecap:round;stroke-linejoin:round;fill:#1086ce;fill-opacity:1"
     d="m 207,771 365,669 H 28 Z"
     sodipodi:nodetypes="cccc" /></svg>
